<svg width="130" height="40" viewBox="0 0 130 59" fill="none" xmlns="http://www.w3.org/2000/svg">
<rect width="129.545" height="50" rx="25" fill="black"/>
<path d="M48.7969 19.5312H38.7656V21.125H46.8125V21.2344C46.8047 23.125 46.8047 25.1562 46.2656 27.8906L48.2812 28.0625C48.7891 25.1172 48.7891 23.1875 48.7969 21.2344V19.5312ZM37.4219 30.5781H50.3906V28.9375H37.4219V30.5781ZM63.1406 18.2344H61.1562V28.7031H63.1406V18.2344ZM51.9844 20.75H56.5938V22.2188H52V26.8906H53.25C56.2578 26.8906 58.1016 26.8125 60.1719 26.4219L59.9531 24.8281C58.1094 25.1797 56.5 25.2578 53.9531 25.2656V23.6875H58.5781V19.1562H51.9844V20.75ZM53.5781 32.1875H63.5156V30.5938H55.5625V27.8281H53.5781V32.1875ZM77.2969 18.2344H75.4062V21.4062H74.1719V18.4531H72.3125V26.0469H74.1719V22.9688H75.4062V26.125H77.2969V18.2344ZM65.6406 20.5156H69.1406V21.5469H65.6562V25.7188H66.6406C68.75 25.7188 70.1484 25.6641 71.8125 25.375L71.6406 23.7812C70.2969 24.0469 69.1328 24.1016 67.5781 24.1172V23H71.0625V18.9531H65.6406V20.5156ZM67.5781 32.2812H77.2969V26.7031H75.3281V27.9062H69.5469V26.7031H67.5781V32.2812ZM69.5469 30.6875V29.4531H75.3281V30.6875H69.5469ZM86.3906 20.0938V19.0625H84.2656V20.0938C84.25 22.1562 82.3984 24.3906 79.2344 24.9531L80.0938 26.6094C82.5547 26.1094 84.3984 24.7031 85.3359 22.8984C86.2578 24.7188 88.0938 26.1172 90.5781 26.6094L91.4531 24.9531C88.2344 24.4062 86.3828 22.1797 86.3906 20.0938ZM78.9062 30.6875H91.9219V29.0469H78.9062V30.6875Z" fill="white"/>
<path d="M65 59L59.8038 50L70.1962 50L65 59Z" fill="black"/>
</svg>
